<svg width="288" height="288" viewBox="0 0 288 288" fill="none" xmlns="http://www.w3.org/2000/svg">
<g clip-path="url(#clip0_12_2)">
<path d="M158.139 96.5878C157.246 95.5463 156.38 94.5361 155.55 93.5611C157.551 92.2442 158.875 89.9799 158.875 87.4111C158.875 84.4094 157.067 81.823 154.484 80.6796L161.281 58.0234C161.494 57.3124 161.359 56.5422 160.915 55.9466C160.472 55.351 159.774 55 159.031 55C156.44 55 155.012 55.9516 153.968 56.6465C153.137 57.2002 152.679 57.5052 151.509 57.5052C150.339 57.5052 149.881 57.2002 149.05 56.6465C148.007 55.9516 146.578 55 143.987 55C141.398 55 139.97 55.9521 138.928 56.6474C138.1 57.2005 137.643 57.5052 136.477 57.5052C135.312 57.5052 134.855 57.2005 134.026 56.6477C132.985 55.9521 131.558 55 128.969 55C128.226 55 127.528 55.351 127.084 55.9466C126.641 56.5422 126.506 57.3121 126.719 58.0234L133.516 80.6796C130.933 81.823 129.125 84.4094 129.125 87.4111C129.125 89.9799 130.449 92.2442 132.449 93.5611C131.619 94.5358 130.754 95.5463 129.86 96.5878C116.599 112.057 96.5575 135.434 96.5575 157.558C96.5575 183.717 117.84 205 144 205C170.16 205 191.442 183.717 191.442 157.558C191.442 135.434 171.401 112.057 158.139 96.5878ZM132.601 61.2818C133.526 61.7737 134.74 62.2026 136.477 62.2026C139.066 62.2026 140.493 61.2505 141.536 60.5553C142.364 60.0019 142.821 59.6975 143.987 59.6975C145.157 59.6975 145.615 60.0024 146.446 60.5562C147.489 61.2511 148.918 62.2026 151.509 62.2026C153.255 62.2026 154.473 61.7708 155.401 61.2763L149.768 80.0523H146.349V72.3801C146.349 71.0831 145.297 70.0313 144 70.0313C142.703 70.0313 141.651 71.0828 141.651 72.3801V80.0523H138.232L132.601 61.2818ZM154.177 87.4111C154.177 88.8789 152.983 90.073 151.516 90.073H151.505C151.503 90.073 151.503 90.073 151.501 90.073H136.484C135.016 90.073 133.822 88.8789 133.822 87.4111C133.822 85.9434 135.016 84.7492 136.484 84.7492H151.508C151.511 84.7492 151.513 84.7498 151.516 84.7498C151.518 84.7498 151.519 84.7495 151.521 84.7495C152.986 84.7527 154.177 85.9451 154.177 87.4111ZM144 200.303C120.43 200.303 101.255 181.127 101.255 157.558C101.255 137.172 120.616 114.589 133.427 99.6452C134.898 97.9299 136.292 96.3013 137.58 94.7702H141.652V97.4321C141.652 98.7291 142.703 99.7809 144 99.7809C145.297 99.7809 146.349 98.7294 146.349 97.4321V94.7702H150.421C151.708 96.3013 153.103 97.9299 154.574 99.6452C167.385 114.589 186.746 137.172 186.746 157.558C186.745 181.127 167.57 200.303 144 200.303Z" fill="black" stroke="#CCCCCC" stroke-width="2.176" stroke-linecap="round" stroke-linejoin="round"/>
<path d="M151.359 153.809V136.244C154.426 137.472 156.683 139.436 156.683 141.822C156.683 143.119 157.734 144.17 159.031 144.17C160.329 144.17 161.38 143.119 161.38 141.822C161.38 137.057 157.327 133.046 151.359 131.218V127.495C151.359 126.198 150.308 125.146 149.01 125.146C147.713 125.146 146.662 126.198 146.662 127.495V130.287C145.795 130.201 144.907 130.156 144 130.156C143.092 130.156 142.204 130.201 141.338 130.287V127.495C141.338 126.198 140.286 125.146 138.989 125.146C137.692 125.146 136.64 126.198 136.64 127.495V131.218C130.673 133.046 126.619 137.056 126.619 141.822C126.619 148.127 130.886 151.443 136.64 153.79V171.355C133.574 170.127 131.317 168.163 131.317 165.778C131.317 164.481 130.265 163.429 128.968 163.429C127.671 163.429 126.619 164.48 126.619 165.778C126.619 170.542 130.673 174.553 136.64 176.381V180.104C136.64 181.401 137.692 182.453 138.989 182.453C140.286 182.453 141.338 181.402 141.338 180.104V177.312C142.204 177.398 143.092 177.443 144 177.443C144.907 177.443 145.795 177.398 146.662 177.312V180.104C146.662 181.401 147.713 182.453 149.01 182.453C150.308 182.453 151.359 181.402 151.359 180.104V176.381C157.327 174.553 161.38 170.543 161.38 165.778C161.38 159.472 157.113 156.156 151.359 153.809ZM136.641 148.637C132.743 146.739 131.317 144.723 131.317 141.822C131.317 139.436 133.575 137.472 136.641 136.244V148.637ZM146.662 172.564C145.775 172.682 144.88 172.745 144 172.745C143.12 172.745 142.225 172.682 141.338 172.564V155.446C141.997 155.652 142.663 155.854 143.335 156.052C144.54 156.408 145.645 156.755 146.662 157.097V172.564H146.662ZM146.662 152.153C146.003 151.947 145.337 151.746 144.665 151.547C143.46 151.192 142.355 150.844 141.338 150.502V135.035C142.225 134.917 143.12 134.854 144 134.854C144.881 134.854 145.776 134.917 146.662 135.035V152.153H146.662ZM151.359 171.355V158.962C155.257 160.86 156.683 162.876 156.683 165.778C156.683 168.163 154.426 170.127 151.359 171.355Z" fill="black" stroke="#CCCCCC" stroke-width="2.176" stroke-linecap="round" stroke-linejoin="round"/>
<path d="M158.139 96.5878C157.246 95.5463 156.38 94.5361 155.55 93.5611C157.551 92.2442 158.875 89.9799 158.875 87.4111C158.875 84.4094 157.067 81.823 154.484 80.6796L161.281 58.0234C161.494 57.3124 161.359 56.5422 160.915 55.9466C160.472 55.351 159.774 55 159.031 55C156.44 55 155.012 55.9516 153.968 56.6465C153.137 57.2002 152.679 57.5052 151.509 57.5052C150.339 57.5052 149.881 57.2002 149.05 56.6465C148.007 55.9516 146.578 55 143.987 55C141.398 55 139.97 55.9521 138.928 56.6474C138.1 57.2005 137.643 57.5052 136.477 57.5052C135.312 57.5052 134.855 57.2005 134.026 56.6477C132.985 55.9521 131.558 55 128.969 55C128.226 55 127.528 55.351 127.084 55.9466C126.641 56.5422 126.506 57.3121 126.719 58.0234L133.516 80.6796C130.933 81.823 129.125 84.4094 129.125 87.4111C129.125 89.9799 130.449 92.2442 132.449 93.5611C131.619 94.5358 130.754 95.5463 129.86 96.5878C116.599 112.057 96.5575 135.434 96.5575 157.558C96.5575 183.717 117.84 205 144 205C170.16 205 191.442 183.717 191.442 157.558C191.442 135.434 171.401 112.057 158.139 96.5878ZM132.601 61.2818C133.526 61.7737 134.74 62.2026 136.477 62.2026C139.066 62.2026 140.493 61.2505 141.536 60.5553C142.364 60.0019 142.821 59.6975 143.987 59.6975C145.157 59.6975 145.615 60.0024 146.446 60.5562C147.489 61.2511 148.918 62.2026 151.509 62.2026C153.255 62.2026 154.473 61.7708 155.401 61.2763L149.768 80.0523H146.349V72.3801C146.349 71.0831 145.297 70.0313 144 70.0313C142.703 70.0313 141.651 71.0828 141.651 72.3801V80.0523H138.232L132.601 61.2818ZM154.177 87.4111C154.177 88.8789 152.983 90.073 151.516 90.073H151.505C151.503 90.073 151.503 90.073 151.501 90.073H136.484C135.016 90.073 133.822 88.8789 133.822 87.4111C133.822 85.9434 135.016 84.7492 136.484 84.7492H151.508C151.511 84.7492 151.513 84.7498 151.516 84.7498C151.518 84.7498 151.519 84.7495 151.521 84.7495C152.986 84.7527 154.177 85.9451 154.177 87.4111ZM144 200.303C120.43 200.303 101.255 181.127 101.255 157.558C101.255 137.172 120.616 114.589 133.427 99.6452C134.898 97.9299 136.292 96.3013 137.58 94.7702H141.652V97.4321C141.652 98.7291 142.703 99.7809 144 99.7809C145.297 99.7809 146.349 98.7294 146.349 97.4321V94.7702H150.421C151.708 96.3013 153.103 97.9299 154.574 99.6452C167.385 114.589 186.746 137.172 186.746 157.558C186.745 181.127 167.57 200.303 144 200.303Z" fill="black" stroke="black" stroke-width="0.128"/>
<path d="M151.359 153.809V136.244C154.426 137.472 156.683 139.436 156.683 141.822C156.683 143.119 157.734 144.17 159.031 144.17C160.329 144.17 161.38 143.119 161.38 141.822C161.38 137.057 157.327 133.046 151.359 131.218V127.495C151.359 126.198 150.308 125.146 149.01 125.146C147.713 125.146 146.662 126.198 146.662 127.495V130.287C145.795 130.201 144.907 130.156 144 130.156C143.092 130.156 142.204 130.201 141.338 130.287V127.495C141.338 126.198 140.286 125.146 138.989 125.146C137.692 125.146 136.64 126.198 136.64 127.495V131.218C130.673 133.046 126.619 137.056 126.619 141.822C126.619 148.127 130.886 151.443 136.64 153.79V171.355C133.574 170.127 131.317 168.163 131.317 165.778C131.317 164.481 130.265 163.429 128.968 163.429C127.671 163.429 126.619 164.48 126.619 165.778C126.619 170.542 130.673 174.553 136.64 176.381V180.104C136.64 181.401 137.692 182.453 138.989 182.453C140.286 182.453 141.338 181.402 141.338 180.104V177.312C142.204 177.398 143.092 177.443 144 177.443C144.907 177.443 145.795 177.398 146.662 177.312V180.104C146.662 181.401 147.713 182.453 149.01 182.453C150.308 182.453 151.359 181.402 151.359 180.104V176.381C157.327 174.553 161.38 170.543 161.38 165.778C161.38 159.472 157.113 156.156 151.359 153.809ZM136.641 148.637C132.743 146.739 131.317 144.723 131.317 141.822C131.317 139.436 133.575 137.472 136.641 136.244V148.637ZM146.662 172.564C145.775 172.682 144.88 172.745 144 172.745C143.12 172.745 142.225 172.682 141.338 172.564V155.446C141.997 155.652 142.663 155.854 143.335 156.052C144.54 156.408 145.645 156.755 146.662 157.097V172.564H146.662ZM146.662 152.153C146.003 151.947 145.337 151.746 144.665 151.547C143.46 151.192 142.355 150.844 141.338 150.502V135.035C142.225 134.917 143.12 134.854 144 134.854C144.881 134.854 145.776 134.917 146.662 135.035V152.153H146.662ZM151.359 171.355V158.962C155.257 160.86 156.683 162.876 156.683 165.778C156.683 168.163 154.426 170.127 151.359 171.355Z" fill="black" stroke="black" stroke-width="0.128"/>
</g>
<defs>
<clipPath id="clip0_12_2">
<rect width="150" height="150" fill="white" transform="translate(69 55)"/>
</clipPath>
</defs>
</svg>
